<?xml version="1.0" encoding="utf-8"?>
<!-- Generator: Adobe Illustrator 15.0.0, SVG Export Plug-In . SVG Version: 6.00 Build 0)  -->
<!DOCTYPE svg PUBLIC "-//W3C//DTD SVG 1.1//EN" "http://www.w3.org/Graphics/SVG/1.1/DTD/svg11.dtd">
<svg version="1.1" id="Layer_1" xmlns="http://www.w3.org/2000/svg" xmlns:xlink="http://www.w3.org/1999/xlink" x="0px" y="0px"
	 width="182px" height="55px" viewBox="0 0 182 55" enable-background="new 0 0 182 55" xml:space="preserve">
<g enable-background="new    ">
	<path fill="#1E6EA4" d="M47.922,19.762h6.661v2.348H52.48v9.578c0,1.148,0.129,2.127,0.387,2.937s0.615,1.47,1.072,1.981
		c0.457,0.511,1,0.884,1.628,1.119c0.629,0.235,1.318,0.353,2.069,0.353c0.777,0,1.492-0.104,2.144-0.313
		c0.651-0.208,1.209-0.558,1.675-1.051s0.828-1.148,1.085-1.968c0.258-0.818,0.387-1.838,0.387-3.059v-9.578h-2.225v-2.348h6.661
		v2.348h-1.832v9.279c0,1.483-0.206,2.8-0.617,3.948s-0.975,2.111-1.689,2.89c-0.715,0.777-1.556,1.368-2.523,1.771
		s-2.008,0.604-3.121,0.604c-1.085,0-2.101-0.199-3.045-0.597c-0.945-0.398-1.769-0.981-2.469-1.751
		c-0.701-0.769-1.253-1.707-1.655-2.814c-0.402-1.108-0.604-2.377-0.604-3.806v-9.523h-1.886V19.762z"/>
	<path fill="#1E6EA4" d="M78.027,37.996h1.98v-6.418c0-1.076-0.273-1.893-0.821-2.448c-0.547-0.557-1.332-0.835-2.354-0.835
		c-0.588,0-1.181,0.141-1.777,0.421c-0.597,0.28-1.163,0.629-1.696,1.045v8.235h1.98v2.333h-6.566v-2.333h1.954v-9.389h-1.954
		v-2.334h4.477v1.655h0.027c0.298-0.262,0.617-0.511,0.957-0.746c0.339-0.234,0.694-0.438,1.065-0.61
		c0.371-0.172,0.757-0.308,1.16-0.407c0.402-0.099,0.825-0.148,1.268-0.148c0.751,0,1.429,0.104,2.035,0.312s1.122,0.524,1.547,0.95
		c0.425,0.425,0.753,0.97,0.983,1.635c0.23,0.664,0.346,1.449,0.346,2.354v6.729h1.954v2.333h-6.566V37.996z"/>
	<path fill="#1E6EA4" d="M87.198,26.273h4.585v11.723H93.9v2.333h-6.675v-2.333h2.008v-9.389h-2.035V26.273z M88.758,21.295
		c0-0.235,0.048-0.459,0.143-0.672c0.095-0.212,0.222-0.397,0.38-0.556s0.346-0.285,0.563-0.38c0.217-0.096,0.448-0.143,0.692-0.143
		c0.235,0,0.459,0.047,0.672,0.143c0.212,0.095,0.397,0.222,0.557,0.38c0.158,0.158,0.284,0.344,0.379,0.556
		c0.096,0.213,0.143,0.437,0.143,0.672c0,0.244-0.047,0.475-0.143,0.691c-0.095,0.218-0.221,0.41-0.379,0.577
		c-0.159,0.167-0.344,0.299-0.557,0.394c-0.213,0.095-0.437,0.143-0.672,0.143c-0.244,0-0.475-0.048-0.692-0.143
		c-0.217-0.095-0.405-0.227-0.563-0.394s-0.285-0.359-0.38-0.577C88.806,21.77,88.758,21.539,88.758,21.295z"/>
	<path fill="#1E6EA4" d="M111.401,25.188c-0.606-1.031-1.409-1.841-2.408-2.429s-2.114-0.882-3.345-0.882
		c-1.049,0-2.008,0.222-2.875,0.665c-0.869,0.443-1.613,1.038-2.232,1.784s-1.102,1.61-1.445,2.591
		c-0.344,0.981-0.516,2.015-0.516,3.101c0,1.284,0.19,2.422,0.57,3.412s0.875,1.813,1.485,2.469c0.61,0.656,1.337,1.203,2.178,1.642
		s1.786,0.658,2.835,0.658c1.43,0,2.674-0.346,3.731-1.038c1.058-0.691,1.962-1.829,2.714-3.412l2.387,1.126
		c-0.344,0.978-0.927,1.92-1.75,2.829c-0.822,0.909-1.838,1.642-3.045,2.197c-1.208,0.557-2.545,0.835-4.01,0.835
		c-1.402,0-2.69-0.265-3.866-0.794s-2.224-1.282-3.141-2.259c-0.919-0.977-1.619-2.135-2.103-3.473
		c-0.484-1.339-0.727-2.736-0.727-4.192c0-1.466,0.242-2.85,0.727-4.151c0.483-1.303,1.162-2.436,2.035-3.398
		c0.872-0.964,1.912-1.724,3.119-2.279c1.208-0.557,2.518-0.835,3.928-0.835c1.258,0,2.343,0.179,3.256,0.536
		c0.914,0.357,1.689,0.782,2.327,1.275s1.188,1.029,1.648,1.607h1.438v2.415H111.401z"/>
	<path fill="#1E6EA4" d="M126.799,29.245h-2.577v-0.868c-0.298,0-0.604,0.057-0.915,0.169c-0.313,0.113-0.604,0.285-0.876,0.516
		c-0.271,0.231-0.509,0.525-0.712,0.882c-0.203,0.357-0.351,0.78-0.441,1.269v6.784h2.389v2.333h-6.975v-2.333h1.941l0.013-9.389
		h-1.954v-2.334h4.491v1.94c0.163-0.289,0.347-0.559,0.55-0.808c0.203-0.248,0.43-0.465,0.678-0.65
		c0.249-0.186,0.525-0.33,0.828-0.435c0.303-0.104,0.631-0.156,0.983-0.156c0.47,0,0.913,0,1.329,0s0.832,0.01,1.248,0.027V29.245z"
		/>
	<path fill="#1E6EA4" d="M132.104,33.627c0,0.398,0.029,0.763,0.088,1.092c0.059,0.331,0.143,0.645,0.251,0.943
		c0.334,0.904,0.871,1.585,1.607,2.042c0.737,0.457,1.572,0.685,2.504,0.685c0.732,0,1.444-0.102,2.137-0.305
		c0.691-0.204,1.418-0.522,2.178-0.957l1.017,1.724c-0.923,0.633-1.85,1.104-2.78,1.411c-0.932,0.307-1.9,0.461-2.904,0.461
		c-0.949,0-1.829-0.158-2.639-0.475c-0.809-0.316-1.506-0.787-2.089-1.411s-1.04-1.402-1.37-2.334
		c-0.33-0.931-0.496-2.017-0.496-3.256c0-1.004,0.141-1.951,0.422-2.842c0.279-0.891,0.697-1.669,1.254-2.334
		s1.246-1.191,2.069-1.58s1.782-0.584,2.876-0.584c1.059,0,1.942,0.161,2.652,0.482c0.71,0.32,1.289,0.746,1.736,1.274
		c0.447,0.529,0.787,1.133,1.018,1.812s0.391,1.37,0.482,2.076c0.045,0.344,0.074,0.691,0.088,1.044
		c0.014,0.354,0.02,0.697,0.02,1.031H132.104z M136.053,28.024c-0.588,0-1.102,0.083-1.541,0.251
		c-0.438,0.167-0.811,0.406-1.119,0.719c-0.307,0.312-0.554,0.694-0.738,1.146c-0.186,0.452-0.324,0.959-0.414,1.52h7.285
		c-0.036-0.524-0.12-1.009-0.251-1.452c-0.132-0.442-0.333-0.827-0.604-1.153c-0.271-0.325-0.619-0.578-1.044-0.76
		C137.201,28.114,136.676,28.024,136.053,28.024z"/>
	<path fill="#1E6EA4" d="M153.947,19.219h4.436v18.777h2.063v2.333h-4.586v-1.153c-0.452,0.461-0.977,0.821-1.573,1.079
		s-1.275,0.387-2.035,0.387c-0.95,0-1.834-0.166-2.652-0.496c-0.819-0.33-1.528-0.813-2.13-1.451s-1.072-1.42-1.411-2.347
		c-0.339-0.928-0.509-1.988-0.509-3.182c0-1.086,0.163-2.073,0.488-2.965c0.326-0.891,0.787-1.65,1.385-2.279
		c0.596-0.628,1.315-1.116,2.156-1.465c0.842-0.348,1.777-0.522,2.809-0.522c0.678,0,1.298,0.075,1.858,0.224
		c0.562,0.149,1.099,0.41,1.614,0.78v-5.386h-1.912V19.219z M152.576,38.443c0.751,0,1.379-0.11,1.887-0.332
		c0.506-0.222,0.972-0.555,1.396-0.997v-7.869c-0.452-0.38-0.973-0.655-1.561-0.828c-0.588-0.171-1.189-0.257-1.804-0.257
		c-0.597,0-1.157,0.11-1.683,0.332c-0.524,0.222-0.983,0.545-1.377,0.97c-0.393,0.426-0.703,0.945-0.93,1.561
		c-0.226,0.615-0.338,1.32-0.338,2.116c0,0.868,0.107,1.633,0.325,2.293c0.217,0.66,0.52,1.214,0.909,1.662
		c0.389,0.447,0.854,0.784,1.396,1.011C151.342,38.33,151.934,38.443,152.576,38.443z"/>
	<path fill="#1E6EA4" d="M162.752,26.273h4.585v11.723h2.116v2.333h-6.674v-2.333h2.008v-9.389h-2.035V26.273z M164.312,21.295
		c0-0.235,0.048-0.459,0.143-0.672c0.095-0.212,0.222-0.397,0.38-0.556s0.346-0.285,0.563-0.38c0.218-0.096,0.448-0.143,0.692-0.143
		c0.235,0,0.459,0.047,0.672,0.143c0.212,0.095,0.397,0.222,0.556,0.38s0.285,0.344,0.381,0.556
		c0.094,0.213,0.143,0.437,0.143,0.672c0,0.244-0.049,0.475-0.143,0.691c-0.096,0.218-0.223,0.41-0.381,0.577
		s-0.344,0.299-0.556,0.394c-0.213,0.095-0.437,0.143-0.672,0.143c-0.244,0-0.475-0.048-0.692-0.143
		c-0.217-0.095-0.404-0.227-0.563-0.394s-0.285-0.359-0.38-0.577C164.359,21.77,164.312,21.539,164.312,21.295z"/>
	<path fill="#1E6EA4" d="M175.844,26.273h3.297v2.049h-3.324l-0.041,8.113c0,0.552,0.063,0.999,0.19,1.343
		c0.126,0.344,0.33,0.581,0.61,0.713c0.28,0.131,0.598,0.196,0.949,0.196c0.381,0,0.715-0.034,1.004-0.102
		c0.29-0.068,0.606-0.184,0.95-0.346l0.583,1.695c-0.434,0.227-0.891,0.405-1.369,0.536c-0.48,0.131-1.045,0.196-1.696,0.196
		c-0.615,0-1.151-0.074-1.608-0.224c-0.456-0.149-0.841-0.4-1.152-0.753c-0.313-0.353-0.545-0.825-0.699-1.418
		c-0.154-0.592-0.23-1.331-0.23-2.218l0.041-7.733h-2.238v-2.049h2.266v-3.364l2.469-1.167V26.273z"/>
</g>
<polygon fill="#64BC52" points="17.762,3.583 1.431,20.657 1.431,37.482 17.762,37.482 "/>
<polygon fill="#1E6EA4" points="23.574,54.424 39.906,37.352 39.906,20.528 23.574,20.528 "/>
</svg>
